<?xml version="1.0" standalone="no"?>
<!DOCTYPE svg PUBLIC "-//W3C//DTD SVG 20010904//EN"
 "http://www.w3.org/TR/2001/REC-SVG-20010904/DTD/svg10.dtd">
<svg version="1.0" xmlns="http://www.w3.org/2000/svg"
 width="512.000000pt" height="512.000000pt" viewBox="0 0 512.000000 512.000000"
 preserveAspectRatio="xMidYMid meet">

<g transform="translate(0.000000,512.000000) scale(0.100000,-0.100000)"
fill="#000000" stroke="none">
<path d="M2191 5104 c-557 -90 -992 -517 -1097 -1079 -17 -92 -19 -158 -19
-810 0 -643 2 -719 18 -800 23 -118 60 -231 106 -331 l38 -80 -63 -66 -63 -67
-15 24 c-9 13 -36 36 -61 50 l-45 27 0 71 c0 227 -228 346 -405 212 -55 -43
-85 -114 -85 -207 0 -77 0 -77 -32 -94 -89 -45 -130 -114 -136 -232 -4 -78 -6
-84 -32 -97 -42 -21 -91 -74 -111 -120 -16 -34 -19 -67 -19 -213 0 -166 -1
-173 -22 -190 -51 -40 -93 -90 -117 -142 -25 -52 -26 -63 -26 -220 0 -161 1
-167 28 -222 17 -35 49 -77 81 -105 39 -35 55 -58 60 -83 18 -100 103 -218
197 -273 100 -59 52 -57 1381 -57 792 0 1253 4 1316 11 209 22 436 85 617 168
49 23 192 103 317 177 l228 136 50 -45 c61 -55 122 -77 211 -77 85 0 132 17
226 82 179 124 233 202 233 338 -1 41 -7 93 -15 114 -15 43 -16 41 34 106 44
58 105 187 126 269 38 148 29 311 -24 463 -38 105 -83 178 -166 266 -88 93
-159 142 -300 205 -204 91 -206 91 -345 91 -112 0 -132 -3 -192 -26 -128 -51
-235 -141 -296 -249 -25 -45 -29 -48 -95 -64 l-69 -17 -28 27 -29 28 28 56
c42 82 88 218 113 334 22 100 23 113 23 817 0 657 -2 723 -19 815 -102 545
-513 965 -1049 1071 -117 23 -340 27 -456 8z m482 -183 c526 -140 877 -596
877 -1137 l0 -112 -31 15 c-17 9 -66 20 -108 26 -42 6 -78 12 -80 14 -2 1 -11
73 -20 160 l-16 158 -100 7 c-173 11 -229 41 -417 226 l-138 136 0 -223 0
-223 -32 7 c-186 37 -341 148 -448 322 -30 48 -65 106 -78 127 l-24 39 -58
-112 c-71 -139 -133 -206 -238 -258 -64 -32 -85 -37 -170 -42 l-97 -6 -17
-155 c-9 -85 -17 -158 -17 -161 -1 -3 -31 -9 -68 -13 -37 -4 -87 -16 -110 -26
l-43 -19 0 113 c0 199 41 370 131 546 160 312 466 540 812 606 110 21 389 12
490 -15z m-382 -994 c133 -83 286 -127 440 -127 l79 0 0 110 0 109 45 -30 c58
-39 151 -77 229 -92 l61 -13 38 -359 c42 -410 43 -501 5 -606 -33 -91 -72
-154 -134 -219 -72 -75 -138 -113 -327 -186 l-162 -62 -3 -144 -3 -145 153
-33 c84 -18 189 -40 232 -49 44 -10 82 -23 84 -29 7 -22 -53 -117 -110 -175
-70 -71 -173 -122 -273 -137 -38 -5 -151 -10 -250 -10 -99 0 -211 5 -250 10
-100 15 -203 66 -274 138 -57 56 -116 152 -108 175 2 6 39 18 83 28 43 9 148
31 232 49 l153 33 -3 145 -3 146 -162 61 c-193 74 -256 110 -334 193 -65 69
-130 192 -148 280 -16 79 -13 144 27 536 l37 358 73 19 c107 27 206 83 282
159 l65 66 76 -76 c41 -42 109 -97 150 -123z m-851 -409 c-1 -55 -27 -288 -34
-295 -13 -13 -92 21 -123 53 -95 101 -20 273 120 274 35 0 37 -2 37 -32z
m2017 16 c139 -67 113 -276 -40 -310 -16 -3 -31 -3 -34 0 -6 6 -32 242 -33
294 0 30 2 32 36 32 20 0 52 -7 71 -16z m-2106 -472 l53 -7 13 -78 c26 -152
102 -295 218 -409 97 -94 169 -134 398 -217 19 -7 27 -18 27 -33 0 -22 -10
-25 -187 -62 -239 -50 -339 -78 -427 -121 -38 -19 -71 -35 -71 -35 -8 0 -69
153 -89 221 -38 134 -46 219 -46 510 l0 270 30 -16 c16 -8 53 -18 81 -23z
m2196 -312 c-4 -266 -6 -291 -29 -381 -23 -85 -74 -222 -96 -257 -7 -10 -19
-7 -53 12 -72 40 -211 81 -431 128 -193 40 -208 45 -208 64 0 18 16 28 98 59
177 68 234 103 335 203 110 107 185 250 210 399 l13 78 53 7 c29 5 64 14 79
22 26 14 27 14 30 -17 2 -18 2 -160 -1 -317z m-2772 -610 c42 -16 55 -63 55
-198 l0 -120 57 -4 c76 -7 103 -36 103 -114 l0 -54 -245 0 -245 0 0 54 c0 30
3 62 6 71 10 25 58 45 109 45 l45 0 0 133 c0 142 8 169 54 187 28 12 31 12 61
0z m3631 -21 l54 -20 0 -132 c0 -229 -42 -349 -165 -472 -113 -114 -223 -162
-392 -172 l-103 -6 0 -78 0 -79 93 0 c125 0 215 21 322 74 144 71 251 176 325
318 59 112 80 206 80 350 0 65 4 118 9 118 18 0 128 -89 174 -141 55 -62 110
-168 132 -254 24 -94 20 -239 -10 -332 -19 -61 -78 -179 -100 -201 -1 -2 -28
11 -60 29 -70 39 -158 45 -221 13 -62 -31 -322 -224 -359 -266 -41 -49 -59
-112 -52 -183 l6 -55 -212 -127 c-314 -187 -473 -255 -712 -303 -135 -28 -383
-38 -468 -20 -203 42 -377 221 -422 435 -18 88 -18 132 0 220 34 160 141 304
281 377 145 75 403 158 544 174 l62 7 -38 -59 c-57 -89 -159 -308 -192 -414
-54 -172 -92 -391 -92 -535 l0 -55 84 0 83 0 6 123 c9 218 70 446 172 649 52
103 144 250 165 263 5 3 47 -19 92 -50 46 -30 88 -55 93 -55 6 0 19 14 29 31
10 16 33 38 52 46 19 9 34 22 34 28 0 7 -52 46 -115 89 -109 72 -115 78 -109
104 32 139 154 243 305 258 l69 7 41 78 c109 209 310 294 515 218z m-2775
-186 c82 -171 259 -309 444 -348 98 -21 542 -21 640 0 185 39 362 177 445 348
l41 86 54 -24 c69 -30 205 -123 205 -140 0 -4 -15 -24 -34 -45 -47 -52 -81
-115 -101 -182 -16 -56 -17 -57 -58 -62 -173 -20 -234 -31 -332 -56 -136 -35
-347 -116 -435 -167 -83 -49 -204 -170 -253 -253 -86 -148 -118 -352 -83 -520
23 -111 92 -242 172 -328 l66 -72 -576 0 c-317 0 -576 3 -576 6 0 4 9 21 19
38 33 54 51 135 51 230 l0 91 48 41 c154 133 156 356 5 494 l-53 49 0 168 c0
155 -2 172 -24 218 -24 52 -78 108 -116 120 -26 8 -23 17 27 93 46 69 132 157
199 203 38 26 171 99 181 99 1 0 20 -39 44 -87z m-522 -458 c41 -20 51 -61 51
-195 l0 -117 -73 -6 c-123 -9 -196 -55 -236 -148 -20 -46 -22 -65 -19 -198 3
-144 4 -149 33 -197 46 -74 107 -107 209 -114 l81 -5 -1 -70 c-2 -80 -18 -126
-63 -178 -63 -71 -88 -77 -344 -77 -252 0 -274 4 -335 63 -29 27 -62 76 -62
90 0 2 31 7 69 9 110 8 192 68 227 165 20 56 19 436 -1 492 -35 102 -118 159
-240 168 l-75 6 0 131 c0 140 8 168 54 186 11 5 173 9 359 9 279 1 343 -2 366
-14z m-642 -509 l28 -24 3 -180 c5 -258 -1 -268 -155 -261 -89 5 -130 26 -157
83 -21 46 -23 273 -2 314 35 67 82 90 183 91 62 1 76 -2 100 -23z m760 8 c83
-40 117 -149 71 -229 -33 -57 -92 -85 -181 -85 -62 0 -71 3 -98 29 -28 29 -29
32 -29 131 0 149 16 169 128 170 48 0 86 -6 109 -16z m3483 -23 c46 -49 80
-117 80 -162 0 -59 -38 -107 -138 -181 -138 -100 -202 -104 -283 -17 -60 63
-83 111 -71 147 6 19 56 61 162 140 179 130 192 134 250 73z"/>
<path d="M1952 3604 c-89 -44 -132 -120 -132 -234 l0 -70 80 0 80 0 0 56 c0
48 4 59 29 85 36 35 70 37 107 6 23 -20 28 -34 32 -85 l4 -62 80 0 81 0 -5 83
c-5 90 -18 124 -70 176 -73 75 -189 93 -286 45z"/>
<path d="M2625 3611 c-94 -43 -144 -125 -145 -238 l0 -73 79 0 79 0 4 62 c4
51 9 65 32 85 37 31 71 29 107 -6 25 -26 29 -37 29 -85 l0 -56 80 0 80 0 0 73
c-1 154 -99 257 -245 257 -37 0 -76 -8 -100 -19z"/>
<path d="M1965 3051 c-71 -20 -71 -21 -18 -130 66 -136 192 -233 348 -266 87
-18 113 -18 200 0 155 33 283 131 349 268 52 107 52 108 -19 128 -80 23 -105
23 -105 2 0 -30 -56 -117 -100 -157 -69 -62 -121 -81 -225 -81 -71 0 -100 5
-137 22 -70 32 -141 103 -172 173 -30 67 -30 67 -121 41z"/>
<path d="M2560 990 l-34 -70 38 -32 c50 -41 76 -98 76 -170 l0 -58 86 0 87 0
-6 73 c-7 101 -38 176 -99 242 -42 46 -93 85 -111 85 -2 0 -18 -32 -37 -70z"/>
<path d="M3300 831 c0 -88 -2 -85 62 -96 57 -9 129 -63 163 -122 17 -29 35
-52 41 -53 6 0 41 9 78 21 74 23 74 23 34 103 -58 114 -186 202 -326 221 l-52
7 0 -81z"/>
</g>
</svg>
